<?xml version="1.0" encoding="UTF-8"?>
<svg width="128pt" height="128pt" version="1.1" viewBox="0 0 128 128" xmlns="http://www.w3.org/2000/svg">
 <g fill="#4367f8">
  <path d="m96 10.668h-64c-5.6562 0.003906-11.078 2.2539-15.078 6.2539s-6.25 9.4219-6.2539 15.078v64c0.003906 5.6562 2.2539 11.078 6.2539 15.078s9.4219 6.25 15.078 6.2539h64c5.6562-0.003906 11.078-2.2539 15.078-6.2539s6.25-9.4219 6.2539-15.078v-64c-0.003906-5.6562-2.2539-11.078-6.2539-15.078s-9.4219-6.25-15.078-6.2539zm10.668 85.332c-0.007813 5.8867-4.7812 10.66-10.668 10.668h-64c-5.8867-0.007813-10.66-4.7812-10.668-10.668v-64c0.007813-5.8867 4.7812-10.66 10.668-10.668h64c5.8867 0.007813 10.66 4.7812 10.668 10.668z"/>
  <path d="m64 40.207c-6.3086 0-12.363 2.5078-16.824 6.9688-4.4609 4.4648-6.9688 10.516-6.9688 16.824 0.003907 6.3125 2.5078 12.363 6.9727 16.824 4.4609 4.4648 10.512 6.9688 16.824 6.9688 6.3086 0 12.363-2.5078 16.824-6.9688 4.4609-4.4609 6.9688-10.516 6.9688-16.824-0.007813-6.3086-2.5156-12.355-6.9766-16.816-4.4609-4.4609-10.512-6.9727-16.82-6.9766zm0 36.922c-5.3086-0.003906-10.094-3.2031-12.125-8.1055-2.0312-4.9062-0.91016-10.555 2.8477-14.309 3.7539-3.7539 9.3984-4.875 14.305-2.8438s8.1016 6.8203 8.1016 12.129c-0.007812 7.2461-5.8828 13.121-13.129 13.129z"/>
 </g>
</svg>
