<?xml version="1.0" encoding="UTF-8"?>
<svg width="128pt" height="128pt" version="1.1" viewBox="0 0 128 128" xmlns="http://www.w3.org/2000/svg">
 <path d="m33.367 39.816c-2.1914 0-4.0312 1.8398-4.0312 4.0312v40.305c0 2.1914 1.8398 4.0312 4.0312 4.0312h61.262c2.1914 0 4.0312-1.8398 4.0312-4.0312v-40.305c0-2.1914-1.8398-4.0312-4.0312-4.0312zm3.6289 4.8359h54.008l-26.25 24.711c-0.28125 0.26562-1.2305 0.26562-1.5117 0l-26.25-24.711zm-2.8203 3.9805 16.852 15.871-16.852 15.695zm59.652 0v31.562l-16.852-15.695 16.852-15.871zm-39.273 19.195 5.3672 5.0625c2.3086 2.1758 5.8516 2.1758 8.1602 0l5.3672-5.0625 16.676 15.516h-52.246z" fill="#4367f8"/>
</svg>
